<?xml version="1.0" encoding="UTF-8"?>
<svg width="16px" height="20px" viewBox="0 0 16 20" version="1.1" xmlns="http://www.w3.org/2000/svg" xmlns:xlink="http://www.w3.org/1999/xlink">
    <!-- Generator: sketchtool 52.3 (67297) - http://www.bohemiancoding.com/sketch -->
    <title>16923BF6-0B2D-410C-B1AD-BE84DD1C10EB</title>
    <desc>Created with sketchtool.</desc>
    <g id="Page-1" stroke="none" stroke-width="1" fill="none" fill-rule="evenodd">
        <g id="NKN-Landing-page" transform="translate(-712.000000, -184.000000)" fill="#FFFFFF" fill-rule="nonzero">
            <g id="Group-3" transform="translate(676.000000, 184.000000)">
                <g id="icons8-mac_os" transform="translate(36.000000, -0.000000)">
                    <path d="M11.5227273,0 C10.3295455,0 9.125,0.628846523 8.31818182,1.59230769 L8.31818182,1.61538462 C7.74431855,2.33942326 7.12215927,3.48173095 7.31818182,4.8 C7.224432,4.76250018 7.21874982,4.77403865 7.11363636,4.73076923 C6.61079564,4.52307692 5.98863636,4.29230769 5.25,4.29230769 C2.35511345,4.29230769 0.159090909,6.95480788 0.159090909,10.4538462 C0.159090909,12.718269 0.909090909,14.841346 1.90909091,16.4307692 C2.40909091,17.2269231 2.97727273,17.881731 3.56818182,18.3692308 C4.15909091,18.8567306 4.77840945,19.2 5.47727273,19.2 C6.17613673,19.2 6.698864,18.9605767 7.09090909,18.7846154 C7.48295491,18.608654 7.78693164,18.4615385 8.36363636,18.4615385 C8.88352291,18.4615385 9.14772727,18.6057696 9.54545455,18.7846154 C9.94318182,18.9634619 10.4857956,19.2 11.2045455,19.2 C11.9829549,19.2 12.6448865,18.8134619 13.1818182,18.3230769 C13.7187498,17.8326927 14.1704545,17.2009617 14.5454545,16.5923077 C14.9204545,15.9836537 15.2159091,15.3865388 15.4318182,14.9076923 C15.5397731,14.668269 15.6193185,14.4692308 15.6818182,14.3076923 C15.7443185,14.1461538 15.775568,14.1 15.8181818,13.9153846 L15.9545455,13.3153846 L15.4090909,13.0615385 C15.2812502,13.0038462 14.7727273,12.7471156 14.3181818,12.2769231 C13.8636364,11.8067306 13.4772727,11.1634619 13.4772727,10.1769231 C13.4772727,9.2221152 13.8380684,8.58173095 14.2272727,8.12307692 C14.4204545,7.89519212 14.6221593,7.70769231 14.7727273,7.59230769 C14.849432,7.53461538 14.9090909,7.5057696 14.9545455,7.47692308 C15,7.44807729 14.9914771,7.45673058 15.0681818,7.40769231 L15.6818182,7.01538462 L15.2727273,6.39230769 C14.0852276,4.53749982 12.1846589,4.29230769 11.4318182,4.29230769 C11.0823862,4.29230769 10.8352276,4.41634634 10.5227273,4.47692308 C10.698864,4.30961575 10.9261367,4.2057696 11.0681818,4.01538462 C11.0710225,4.01250018 11.0653411,3.99519212 11.0681818,3.99230769 C11.0767047,3.98365366 11.0852276,3.9778848 11.0909091,3.96923077 L11.1136364,3.96923077 C11.8892044,3.08942326 12.3181818,1.90673058 12.25,0.692307692 L12.2045455,0 L11.5227273,0 Z M10.6590909,1.70769231 C10.5340909,2.19519212 10.3295455,2.65961575 10,3.02307692 L9.95454545,3.06923077 C9.67613673,3.45 9.24715927,3.73269268 8.81818182,3.9 C8.93750036,3.41826905 9.14488655,2.93076923 9.43181818,2.56153846 C9.43750036,2.55288443 9.448864,2.54711557 9.45454545,2.53846154 C9.77272727,2.16923077 10.2130684,1.89230769 10.6590909,1.70769231 Z M5.25,5.76923077 C5.65625018,5.76923077 6.10227273,5.92500037 6.56818182,6.11538462 C7.03409091,6.3057696 7.46874982,6.55384615 8.09090909,6.55384615 C8.71022764,6.55384615 9.17897745,6.3057696 9.72727273,6.11538462 C10.275568,5.92500037 10.8607956,5.76923077 11.4318182,5.76923077 C11.8125004,5.76923077 12.7528407,6.01442289 13.5454545,6.76153846 C13.4062502,6.88846154 13.2840909,6.98076923 13.1363636,7.15384615 C12.5823862,7.8057696 12.0227273,8.82115422 12.0227273,10.1769231 C12.0227273,11.5846154 12.6278407,12.6432694 13.2727273,13.3153846 C13.6732953,13.7307692 13.9204545,13.8288465 14.2272727,14.0076923 C14.1875004,14.1 14.1647731,14.1721152 14.1136364,14.2846154 C13.9176138,14.7173081 13.6477273,15.2711542 13.3181818,15.8076923 C12.9886364,16.3442311 12.5880684,16.8663463 12.2045455,17.2153846 C11.8210225,17.5644229 11.4772727,17.7230769 11.2045455,17.7230769 C10.7926138,17.7230769 10.5511367,17.6076923 10.1363636,17.4230769 C9.72159127,17.2384615 9.150568,16.9846154 8.36363636,16.9846154 C7.53693164,16.9846154 6.92613673,17.2326927 6.5,17.4230769 C6.073864,17.6134619 5.85227273,17.7230769 5.47727273,17.7230769 C5.29829527,17.7230769 4.91193164,17.5759614 4.47727273,17.2153846 C4.04261382,16.8548079 3.56534109,16.3067306 3.13636364,15.6230769 C2.275568,14.2557696 1.61363636,12.3778848 1.61363636,10.4538462 C1.61363636,7.54326942 3.21306836,5.76923077 5.25,5.76923077 Z" id="Shape"></path>
                </g>
            </g>
        </g>
    </g>
</svg>