<?xml version="1.0" encoding="UTF-8"?>
<svg width="22px" height="22px" viewBox="0 0 22 22" version="1.1" xmlns="http://www.w3.org/2000/svg" xmlns:xlink="http://www.w3.org/1999/xlink">
    <!-- Generator: sketchtool 52.3 (67297) - http://www.bohemiancoding.com/sketch -->
    <title>6F0FC061-AE58-4A34-82FB-2A862D626FDE</title>
    <desc>Created with sketchtool.</desc>
    <g id="Page-1" stroke="none" stroke-width="1" fill="none" fill-rule="evenodd">
        <g id="NKN-Landing-page" transform="translate(-1308.000000, -2240.000000)" fill="#292929">
            <g id="Footer" transform="translate(0.000000, 2200.000000)">
                <g id="icons8-github" transform="translate(1308.000000, 40.000000)">
                    <path d="M11,0 C4.92350283,0 0,4.92350283 0,11 C0,15.8590492 3.15104167,19.9840493 7.52311175,21.4378258 C8.0745445,21.5380862 8.27506533,21.2014972 8.27506533,20.9078778 C8.27506533,20.6464848 8.26432292,19.9554034 8.26074242,19.0387368 C5.19921875,19.7011723 4.5546875,17.5634763 4.5546875,17.5634763 C4.05338542,16.2923182 3.33365908,15.9521487 3.33365908,15.9521487 C2.33463542,15.2718097 3.40885417,15.2861326 3.40885417,15.2861326 C4.51171875,15.3649091 5.09179733,16.417643 5.09179733,16.417643 C6.07291667,18.1005862 7.66634092,17.613607 8.29296875,17.3343097 C8.39322917,16.6217453 8.6796875,16.1383466 8.99121117,15.8626307 C6.54915342,15.5869138 3.98177083,14.6416013 3.98177083,10.4270833 C3.98177083,9.22395833 4.41145833,8.242839 5.11328125,7.472982 C5.00227842,7.19726608 4.62272158,6.07649717 5.22070358,4.56184942 C5.22070358,4.56184942 6.14453125,4.26822917 8.2464195,5.68977842 C9.12369792,5.44628883 10.0654299,5.3245445 11,5.320964 C11.9345701,5.3245445 12.8763021,5.44628883 13.7535805,5.68977842 C15.8554688,4.26822917 16.7757159,4.56184942 16.7757159,4.56184942 C17.3772784,6.07649717 17.0013021,7.19726608 16.8867188,7.472982 C17.5921222,8.242839 18.0146487,9.22395833 18.0146487,10.4270833 C18.0146487,14.6523438 15.4436847,15.5797528 12.9944659,15.8554688 C13.3883466,16.1920578 13.7392576,16.8652348 13.7392576,17.8893229 C13.7392576,19.3610028 13.7285161,20.5462244 13.7285161,20.9078778 C13.7285161,21.2014972 13.9254555,21.5452472 14.4840492,21.4378258 C18.8525388,19.9804688 22,15.8590492 22,11 C22,4.92350283 17.0764972,0 11,0 Z" id="Path"></path>
                </g>
            </g>
        </g>
    </g>
</svg>