<?xml version="1.0" encoding="UTF-8"?>
<svg width="15px" height="16px" viewBox="0 0 15 16" version="1.1" xmlns="http://www.w3.org/2000/svg" xmlns:xlink="http://www.w3.org/1999/xlink">
    <!-- Generator: sketchtool 52.3 (67297) - http://www.bohemiancoding.com/sketch -->
    <title>D5BABFCD-8230-4DD6-9A2A-47A0E7E27E7C</title>
    <desc>Created with sketchtool.</desc>
    <g id="Page-1" stroke="none" stroke-width="1" fill="none" fill-rule="evenodd">
        <g id="NKN-Landing-page" transform="translate(-676.000000, -187.000000)" fill="#FFFFFF" fill-rule="nonzero">
            <g id="Group-3" transform="translate(676.000000, 184.000000)">
                <g id="icons8-windows8" transform="translate(0.000000, 3.000000)">
                    <path d="M15,0.580078125 L14.2329545,0.6875 L0.596590909,2.62109375 L0,2.68554688 L0,13.8144531 L0.596590909,13.8789062 L14.2329545,15.8125 L15,15.9199219 L15,0.580078125 Z M13.6363636,2.16992188 L13.6363636,7.5625 L7.5,7.5625 L7.5,3.02929688 L13.6363636,2.16992188 Z M6.13636364,3.22265625 L6.13636364,7.5625 L1.36363636,7.5625 L1.36363636,3.88867188 L6.13636364,3.22265625 Z M1.36363636,8.9375 L6.13636364,8.9375 L6.13636364,13.2773438 L1.36363636,12.6113281 L1.36363636,8.9375 Z M7.5,8.9375 L13.6363636,8.9375 L13.6363636,14.3300781 L7.5,13.4707031 L7.5,8.9375 Z" id="Shape"></path>
                </g>
            </g>
        </g>
    </g>
</svg>