<?xml version="1.0" encoding="UTF-8"?>
<svg width="22px" height="19px" viewBox="0 0 22 19" version="1.1" xmlns="http://www.w3.org/2000/svg" xmlns:xlink="http://www.w3.org/1999/xlink">
    <!-- Generator: sketchtool 52.3 (67297) - http://www.bohemiancoding.com/sketch -->
    <title>997AA2E8-694E-4672-830B-EAD648BDF727</title>
    <desc>Created with sketchtool.</desc>
    <g id="Page-1" stroke="none" stroke-width="1" fill="none" fill-rule="evenodd">
        <g id="NKN-Landing-page" transform="translate(-1265.000000, -2242.000000)" fill="#25A6FF">
            <g id="Footer" transform="translate(0.000000, 2200.000000)">
                <g id="icons8-twitter" transform="translate(1265.000000, 42.000000)">
                    <path d="M22,2.34537783 C21.1907557,2.70345075 20.3206383,2.94694033 19.4075521,3.05436175 C20.3385417,2.495768 21.0546875,1.61132858 21.3912765,0.55859375 C20.5211591,1.07421875 19.5543617,1.45019508 18.5266932,1.65429733 C17.703125,0.777018 16.5286458,0.225586167 15.2324223,0.225586167 C12.7402348,0.225586167 10.7171222,2.24869792 10.7171222,4.74088542 C10.7171222,5.09537783 10.7565104,5.43912783 10.8352869,5.76855492 C7.08268275,5.582357 3.75618467,3.7848305 1.53255208,1.05273483 C1.14225283,1.71875 0.920247167,2.495768 0.920247167,3.32291667 C0.920247167,4.88769508 1.7151695,6.269857 2.92903692,7.07910133 C2.18782575,7.05403692 1.49316383,6.85351608 0.884440333,6.51334658 C0.884440333,6.5348305 0.884440333,6.55273483 0.884440333,6.57063825 C0.884440333,8.758464 2.43847633,10.5846354 4.50455775,10.9964195 C4.125,11.1002604 3.72753883,11.1575521 3.31575567,11.1575521 C3.02571592,11.1575521 2.73925758,11.1289062 2.46712217,11.0751951 C3.04003883,12.8691411 4.70865908,14.1725265 6.68164108,14.2119138 C5.13834658,15.4222007 3.19042992,16.1419271 1.07779925,16.1419271 C0.712565333,16.1419271 0.354492417,16.1204432 0,16.0774744 C1.99804733,17.359375 4.36848958,18.1077472 6.91796875,18.1077472 C15.2216799,18.1077472 19.7620445,11.2291667 19.7620445,5.26367233 C19.7620445,5.0703125 19.7548826,4.87337217 19.7477216,4.68001325 C20.6285805,4.042643 21.394857,3.24772158 22,2.34537783 Z" id="Path"></path>
                </g>
            </g>
        </g>
    </g>
</svg>