<?xml version="1.0" encoding="UTF-8"?>
<svg width="16px" height="19px" viewBox="0 0 16 19" version="1.1" xmlns="http://www.w3.org/2000/svg" xmlns:xlink="http://www.w3.org/1999/xlink">
    <!-- Generator: sketchtool 52.3 (67297) - http://www.bohemiancoding.com/sketch -->
    <title>F215B1D0-03FB-4073-BE32-58FAA2BC624C</title>
    <desc>Created with sketchtool.</desc>
    <g id="Page-1" stroke="none" stroke-width="1" fill="none" fill-rule="evenodd">
        <g id="NKN-Landing-page" transform="translate(-748.000000, -185.000000)" fill="#FFFFFF" fill-rule="nonzero">
            <g id="Group-3" transform="translate(676.000000, 184.000000)">
                <g id="linux" transform="translate(72.000000, 1.000000)">
                    <path d="M15.4886743,14.7083987 C14.9403831,14.4883925 14.7058391,14.1964324 14.7285211,13.7608046 C14.7518774,13.252322 14.4574406,12.8798791 14.3176092,12.7327279 C14.4020843,12.4165629 14.6489502,11.3228387 14.3178544,10.3728422 C13.9620536,9.35599696 12.8757701,7.80298063 11.7549119,6.27639146 C11.2960613,5.64946705 11.2743602,4.96800658 11.2492874,4.17891548 C11.2252567,3.42628185 11.1981609,2.57316494 10.7697778,1.62479011 C10.304,0.592148665 9.36937931,0 8.20542529,0 C7.51301149,0 6.8022682,0.212017932 6.25532567,0.581637861 C5.13532567,1.3389563 5.28337165,2.99011352 5.38133333,4.08269657 C5.39475862,4.23231036 5.40738697,4.37363563 5.4147433,4.49429966 C5.47996935,5.56435956 5.42062835,6.12833927 5.34301916,6.29975547 C5.29281226,6.41177061 5.04563985,6.73057831 4.7840613,7.06812527 C4.51353257,7.41720409 4.20683525,7.81289081 3.95543295,8.18160982 C3.65547893,8.62528587 3.41333333,9.30344294 3.17915709,9.95925705 C3.00781609,10.4391503 2.84597701,10.8924363 2.68842912,11.1633147 C2.38982375,11.6844103 2.46412261,12.1703098 2.52616092,12.3948806 C2.41311877,12.4718197 2.24980843,12.6232954 2.1119387,12.9088289 C1.94531801,13.257187 1.60723372,13.4443994 0.904214559,13.5768355 C0.581149425,13.6415821 0.358375479,13.7746789 0.241900383,13.9724021 C0.0723984674,14.2601579 0.164720307,14.6217296 0.248950192,14.8688236 C0.373394636,15.2320769 0.295846743,15.4619933 0.154850575,15.8794223 C0.122360153,15.9757614 0.0855172414,16.0848335 0.048183908,16.2051371 C-0.010605364,16.3949923 0.010605364,16.5676097 0.11108046,16.7181845 C0.376582375,17.1158533 1.15132567,17.2560974 1.94887356,17.3483522 C2.4250728,17.4037292 2.9462682,17.590341 3.45036015,17.7708866 C3.94427586,17.9477083 4.45498851,18.1305963 4.91923372,18.1860934 C4.9897931,18.1948023 5.05967816,18.1991868 5.12704981,18.1991868 C5.82798467,18.1991868 6.14467433,17.7434984 6.24508812,17.556286 C6.49685824,17.5059542 7.36521073,17.3447485 8.26016858,17.3231263 C9.15371648,17.2981406 10.0182682,17.4709983 10.2631724,17.5247536 C10.3401686,17.669142 10.5431418,17.998941 10.8666973,18.1688556 C11.0445364,18.2641135 11.2920153,18.3187097 11.5455019,18.3187097 C11.5455632,18.3187097 11.5455019,18.3187097 11.5455632,18.3187097 C11.8162759,18.3187097 12.3312797,18.2560052 12.7388812,17.8358734 C13.1454406,17.4137595 14.1612261,16.8748856 14.9029885,16.4814211 C15.0685057,16.3936109 15.2233563,16.3114464 15.3591418,16.2372702 C15.7758161,16.0109575 16.0031877,15.6875852 15.9828966,15.3500983 C15.965977,15.0697901 15.776613,14.8238974 15.4886743,14.7083987 Z M6.26445977,14.6271351 C6.2125977,14.2691672 5.74259004,13.9141422 5.19828352,13.5030797 C4.75322605,13.1669142 4.24876628,12.7859426 4.1097931,12.4632909 C3.82259004,11.7976868 4.04898084,10.6273237 4.44370881,10.0246643 C4.63877395,9.72291411 4.79809962,9.26530374 4.95221456,8.82276886 C5.11859004,8.34491768 5.29066667,7.85084983 5.48309579,7.63456752 C5.78783142,7.29690043 6.06945594,6.63988509 6.11935632,6.12209285 C6.40472031,6.38900721 6.84738697,6.72769535 7.25633716,6.72769535 C7.31929502,6.72769535 7.38041379,6.71964708 7.43883525,6.70349047 C7.71862069,6.6243291 8.13014559,6.39134962 8.52812261,6.16611811 C8.87123372,5.97187845 9.29434483,5.73235224 9.45354789,5.71054983 C9.72652874,6.09458458 11.3127356,9.5337797 11.4748199,10.638255 C11.6030651,11.5121533 11.4675862,12.2345758 11.3994789,12.5175267 C11.3446743,12.5101991 11.2793257,12.504253 11.2106667,12.504253 C10.7688582,12.504253 10.6518927,12.7405359 10.6214253,12.8816209 C10.5430805,13.2481777 10.5348046,14.4202825 10.5339464,14.6836532 C10.3741916,14.8825176 9.56628352,15.8190002 8.40637548,15.9873533 C7.93391571,16.0546224 7.49272031,16.0887375 7.09511111,16.0887375 C6.75524904,16.0887375 6.53836015,16.0630311 6.44830651,16.0496373 L5.86544061,15.3962257 C6.09526437,15.2850514 6.32502682,15.0504502 6.26445977,14.6271351 Z M7.00407663,3.85290037 C6.98586973,3.86058827 6.96796935,3.86881673 6.95037548,3.87758574 C6.9485977,3.83890598 6.94449042,3.79968567 6.93817625,3.76034523 C6.87454406,3.40147635 6.63166284,3.1409886 6.36076628,3.1409886 C6.34072031,3.1409886 6.32055172,3.14249014 6.29842146,3.14579354 C6.1372567,3.17210058 6.01085057,3.29072251 5.94157854,3.45889537 C6.0023295,3.08987606 6.21572414,2.81665522 6.46890421,2.81665522 C6.76622222,2.81665522 7.01737931,3.20921873 7.01737931,3.67385633 C7.01737931,3.73241652 7.01302682,3.79067641 7.00407663,3.85290037 Z M9.3143295,4.12960479 C9.34154789,4.04467749 9.35626054,3.95278304 9.35626054,3.857405 C9.35626054,3.43613197 9.0834636,3.10609273 8.73520307,3.10609273 C8.39485057,3.10609273 8.11794636,3.44309914 8.11794636,3.857405 C8.11794636,3.88563401 8.11935632,3.91392309 8.12205364,3.94215211 C8.10403065,3.93536513 8.08643678,3.92875834 8.06927203,3.9223918 C8.03009962,3.80617234 8.01029885,3.68490769 8.01029885,3.56112045 C8.01029885,3.05738266 8.33888123,2.64752137 8.7428659,2.64752137 C9.14678927,2.64752137 9.47543295,3.05738266 9.47543295,3.56112045 C9.47543295,3.77067585 9.41639847,3.97068143 9.3143295,4.12960479 Z M9.01645977,5.11005259 C9.01063602,5.13551876 8.99825287,5.14681037 8.86130268,5.21660211 C8.79215326,5.25185835 8.70608429,5.29576348 8.59837548,5.36002953 L8.52640613,5.40273343 C8.23718008,5.57451 7.55996935,5.97686357 7.37612261,6.00046784 C7.25124904,6.01692475 7.17400766,5.96947598 7.00033716,5.85385714 C6.96116475,5.82773028 6.91947893,5.79998176 6.87503448,5.77205305 C6.56196169,5.57078617 6.36058238,5.3490983 6.33783908,5.26242921 C6.43990805,5.18512976 6.69290421,4.9916709 6.82243678,4.87713317 C7.08536398,4.63760696 7.34994636,4.47664151 7.48088889,4.47664151 C7.48781609,4.47664151 7.49406897,4.477122 7.50056705,4.47832324 C7.65443678,4.50493058 8.03396169,4.65334314 8.31117241,4.76169451 C8.43929502,4.811786 8.54994636,4.85503045 8.62780077,4.8824186 C8.8730728,4.96494343 9.00095019,5.07053196 9.01645977,5.11005259 Z M11.2201073,16.3037585 C11.3584674,15.69227 11.5178544,14.8604149 11.492046,14.3700108 C11.4860996,14.2585963 11.476046,14.1373317 11.4662989,14.0200911 C11.448092,13.8008658 11.4210575,13.4750309 11.4489502,13.3783915 C11.4544674,13.375869 11.4605977,13.3737067 11.4674023,13.3718448 C11.468567,13.652213 11.530728,14.2114478 11.9871877,14.4064683 C12.1232184,14.4646081 12.278682,14.4940383 12.4492261,14.4940383 C12.9064828,14.4940383 13.4138238,14.2742724 13.6216398,14.0706631 C13.744,13.9507799 13.8469272,13.8041091 13.9190192,13.6879497 C13.9347739,13.7331762 13.9444598,13.792277 13.9393716,13.8684353 C13.9122146,14.2819603 14.1173333,14.8305642 14.5077088,15.032732 L14.5645364,15.0619821 C14.7035709,15.1334556 15.0728582,15.3234308 15.0788046,15.4135234 C15.0787433,15.4135835 15.0756782,15.4241544 15.0550805,15.4428936 C14.9625747,15.5257188 14.6369962,15.6886062 14.3221456,15.8461481 C13.7636169,16.1255553 13.1305441,16.4422609 12.8462222,16.735242 C12.4459157,17.1479863 11.9931341,17.4252313 11.7197241,17.4252313 C11.6868046,17.4252313 11.6568276,17.4211471 11.6301609,17.4128585 C11.3332107,17.3221653 11.0887969,16.9023938 11.2201073,16.3037585 Z M1.09836015,14.743775 C1.06807663,14.6049123 1.04416858,14.4952996 1.06985441,14.3891105 C1.08849042,14.3104296 1.48493487,14.2261029 1.65425287,14.1901259 C1.89229119,14.1394939 2.13848276,14.0871801 2.2994636,13.9914417 C2.51714943,13.8622489 2.63503448,13.623984 2.73900383,13.4137679 C2.81428352,13.2617517 2.89201533,13.1045701 2.98452107,13.0529771 C2.9897318,13.049974 2.99770115,13.0464904 3.01290421,13.0464904 C3.1862069,13.0464904 3.54985441,13.4034373 3.75938697,13.7229057 C3.8125364,13.8034485 3.91098851,13.9648343 4.02488889,14.1516864 C4.36554789,14.7101404 4.832,15.4750267 5.07561686,15.7313702 C5.29514176,15.961827 5.65051341,16.4049025 5.56309579,16.7849131 C5.49909579,17.0797562 5.15837548,17.3195226 5.07800766,17.3725571 C5.04882759,17.3790438 5.01272031,17.3823472 4.97023755,17.3823472 C4.50396935,17.3823472 3.58099617,17.0022765 3.08511877,16.7980666 L3.01173946,16.7678556 C2.73483525,16.6540986 2.28278927,16.582445 1.84563985,16.5131337 C1.49780843,16.457937 1.02148659,16.3824394 0.942528736,16.3142093 C0.878528736,16.243877 0.952766284,16.0152219 1.01823755,15.8134746 C1.06537931,15.6684855 1.11405364,15.5185714 1.14072031,15.3616301 C1.17854406,15.1112928 1.13403831,14.9075033 1.09836015,14.743775 Z" id="XMLID_92_"></path>
                </g>
            </g>
        </g>
    </g>
</svg>